<svg width="184" height="200" viewBox="0 0 184 200" xmlns="http://www.w3.org/2000/svg"><title>shield-large</title><g fill="none" fill-rule="evenodd"><path d="M90.692 10.282L7.61 39.917 20.24 149.94 90.692 189l71.72-39.586L176.153 39.39 90.692 10.283zm36.36 135.6l-11.448-26.13H68.868L58.412 145.82l-19.634.328L90.692 30.21l54.385 115.673H127.05z" fill="#FFF"/><path d="M75.73 104.073h33.152l-18.19-36.7-14.962 36.7" fill="#FFF"/><path d="M90.692 10.282L7.61 39.917 20.24 149.94 90.692 189l71.72-39.586L176.153 39.39 90.692 10.283zm36.36 135.6l-11.448-26.13H68.868L58.412 145.82l-19.634.328L90.692 30.21l54.385 115.673H127.05z" fill="#FFF"/><path d="M75.73 104.073h33.152l-18.19-36.7-14.962 36.7" fill="#FFF"/><path d="M90.692 67.374v36.7h18.19l-18.19-36.7" fill="#F2F2F2"/><path d="M90.692 10.282V30.21l54.385 115.673H127.05l-11.446-26.13H90.692V189l71.72-39.586L176.153 39.39 90.692 10.283" fill="#F2F2F2"/><path d="M75.73 104.073h14.962v-36.7l-14.962 36.7" fill="#FFF"/><path d="M68.868 119.752L58.412 145.82l-19.634.328L90.692 30.21V10.282L7.61 39.917 20.24 149.94 90.692 189v-69.248H68.868" fill="#FFF"/></g></svg>