<svg id="Layer_1" xmlns="http://www.w3.org/2000/svg" width="185.9" height="200" viewBox="-1347 801 185.9 200"><style>.st0{fill:#FFF}.st1{fill:#f2f2f2}.st2{fill:#b3b3b3}</style><title>shield-large</title><g id="Page-1"><g id="shield-large"><g id="Imported-Layers"><path id="Fill-1" class="st0" d="M-1255.3 812.3l-83.1 29.6 12.6 110 70.5 39.1 71.7-39.6 13.7-110-85.4-29.1zm36.4 135.6l-11.4-26.1h-46.7l-10.5 26.1-19.6.3 51.9-115.9 54.4 115.7-18.1-.1z"/><path id="Fill-2" class="st0" d="M-1270.3 906.1h33.2l-18.2-36.7-15 36.7"/><path id="Fill-3" class="st0" d="M-1255.3 812.3l-83.1 29.6 12.6 110 70.5 39.1 71.7-39.6 13.7-110-85.4-29.1zm36.4 135.6l-11.4-26.1h-46.7l-10.5 26.1-19.6.3 51.9-115.9 54.4 115.7-18.1-.1z"/><path id="Fill-4" class="st0" d="M-1270.3 906.1h33.2l-18.2-36.7-15 36.7"/><path id="Fill-5" class="st1" d="M-1255.3 869.4v36.7h18.2l-18.2-36.7"/><path id="Fill-6" class="st1" d="M-1255.3 812.3v19.9l54.4 115.7h-18l-11.4-26.1h-24.9V991l71.7-39.6 13.7-110-85.5-29.1"/><path id="Fill-7" class="st0" d="M-1270.3 906.1h15v-36.7l-15 36.7"/><path id="Fill-8" class="st0" d="M-1277.1 921.8l-10.5 26.1-19.6.3 51.9-115.9v-19.9l-83.1 29.6 12.6 110 70.5 39.1v-69.2l-21.8-.1"/></g></g></g><path class="st2" d="M-1255.3 812.3l85.5 29.1-13.7 110-71.7 39.6-70.5-39.1-12.6-110 83-29.6m-.1-8.5l-2.6.9-83.1 29.6-6 2.1.7 6.3 12.6 110 .5 4.1 3.6 2 70.5 39.1 3.9 2.1 3.9-2.1 71.7-39.6 3.6-2 .5-4 13.7-110 .8-6.5-6.2-2.1-85.5-29.1-2.6-.8z"/></svg>