<svg xmlns="http://www.w3.org/2000/svg" viewBox="0 0 600 600"><path fill="#0994D9" d="M488.062 225.6c0 55.26-44.795 100.056-100.054 100.056-55.26 0-100.056-44.795-100.056-100.055 0-55.254 44.795-100.05 100.056-100.05 55.26 0 100.054 44.796 100.054 100.05z"/><path fill-rule="evenodd" clip-rule="evenodd" fill="#FF5858" d="M112 150.488c-.334-2.358.682-3.428 2.957-4.128 0 0 88.277-30.835 102.39-35.003.308-.09.583-.17.82-.234.544-.15 1.415-.16 1.886-.027 9.877 2.768 96.896 33.284 103.35 35.268 2.276.7 3.293 1.77 2.96 4.13-1.18 8.302-15.958 129.596-15.958 134.37-.244 2.285-.99 3.82-3.092 4.977 0 0-78.89 43.86-87.498 47.123-.33.127-1.11.11-1.528-.052-7.893-3.008-61.974-33.16-87.232-47.07-2.102-1.157-2.847-2.69-3.09-4.977C126.972 275.68 112 150.488 112 150.488z"/><path fill-rule="evenodd" clip-rule="evenodd" fill="#FFF" d="M195.256 249.736c-7.56 0-5.65-.262-8.254 5.46-3.777 8.296-7.826 16.6-11.56 25.045-1.02 2.228-1.52 2.53-3.22 2.53h-20c1.172-2.835 2.73-5.792 3.955-8.514 18.965-42.188 57.81-126.652 62.618-136.252.26-.52.628-.54.86-.037 7.946 17.25 66.31 143.874 66.57 144.8h-20.007c-2.376 0-2.05-.127-2.913-2.066-4.348-9.548-8.824-19.21-13.073-28.806-.362-.824-.867-2.126-4.01-2.126-1 .002-44-.032-50.966-.032zm44.967-19.966c-.133-.808-19.29-41.527-20.86-44.88-.07-.146-.142-.146-.216 0-1.113 2.163-17.753 39.153-20.1 44.88h41.176z"/><path fill="#FFF" d="M395.084 283.216c-15.496 0-30.014-5.938-40.882-16.724-10.892-10.81-16.888-25.273-16.888-40.735 0-15.477 5.994-29.997 16.88-40.885 10.89-10.888 25.41-16.884 40.89-16.884 14.918 0 26.854 4.582 38.7 14.86 1.02.91 3.593 3.41 3.593 3.41s-2.418 2.41-3.353 3.344l-6.768 6.924c-2.52 2.71-3.31 2.677-6.238.116-7.165-6.27-16.817-9.98-25.78-9.98-10.163 0-19.63 4.098-26.655 11.536-6.918 7.32-10.73 17-10.73 27.25 0 10.222 3.837 19.87 10.8 27.162 7.06 7.392 16.557 11.464 26.74 11.464 11.312 0 18.877-5.01 25.74-9.92 2.925-2.093 2.992-2.474 5.785-.118l.097.088 7.124 6.97c.815.733 3.222 3.148 3.222 3.148s-2.393 2.465-3.338 3.41c-10.495 10.19-23.956 15.564-38.94 15.564z"/><path fill-rule="evenodd" clip-rule="evenodd" fill="#FF5858" d="M116.223 414.77l19-53h12l20.438 53h-15.437l-4-10h-13l-4 10h-15zm25.58-37.835l-4.945 17.837h9.668l-4.722-17.837zM185.223 388.776v25.993h-14v-53h11l22 27v-27h14v53h-12l-21-25.994zM259.223 410.77c-3.348 3.148-6.915 4.538-11.31 4.538a20.67 20.67 0 0 1-9.37-2.21 25.667 25.667 0 0 1-7.757-5.96c-2.224-2.498-3.984-5.407-5.282-8.73-1.3-3.322-1.95-6.832-1.95-10.53 0-3.747.662-7.232 1.987-10.455 1.323-3.222 3.147-6.02 5.47-8.394 2.325-2.373 5.06-4.247 8.208-5.622 3.148-1.373 6.52-2.06 10.118-2.06 2.248 0 4.395.262 6.445.786a22.05 22.05 0 0 1 5.696 2.323 21.746 21.746 0 0 1 4.684 3.672 19.404 19.404 0 0 1 3.41 4.834l-10.865 8.318c-.9-2.1-2.262-3.785-4.086-5.06-1.825-1.273-3.76-1.91-5.81-1.91-1.5 0-2.885.35-4.16 1.05-1.273.7-2.372 1.674-3.297 2.922-.925 1.25-1.648 2.735-2.173 4.46-.524 1.723-.786 3.61-.786 5.657 0 2.1.262 4 .786 5.697.524 1.698 1.26 3.16 2.21 4.384a10.056 10.056 0 0 0 3.41 2.85c1.324.675 2.785 1.012 4.385 1.012 1.8 0 3.533-.45 5.21-1.35 1.673-.9 3.378-2.524 4.827-4.223h-9v-10h21v28h-12v-4zM300.867 402.466c1.7 0 3.15-.375 4.348-1.125a8.916 8.916 0 0 0 2.922-2.96c.75-1.223 1.3-2.634 1.65-4.233.35-1.6.523-3.273.523-5.022V361.77h14.912v27c0 3.698-.773 7.513-1.72 10.735-.952 3.223-2.426 6.01-4.424 8.356-1.998 2.35-4.51 4.197-7.532 5.547-3.023 1.35-6.583 2.023-10.68 2.023-4.247 0-7.882-.712-10.904-2.136-3.023-1.424-5.508-3.335-7.457-5.733-1.948-2.397-3.373-5.182-4.27-8.356-.9-3.173-1.013-6.84-1.013-10.387v-27h14v27c0 1.75.45 3.742.802 5.366.35 1.623.9 3.048 1.648 4.27.75 1.226 1.71 2.2 2.886 2.924 1.172.726 2.61 1.09 4.31 1.09zM330.223 414.77v-53h15v40h24v13h-39zM372.223 414.606l19.81-53.05h11.84l19.786 53.213h-15.44l-2.997-10.164h-14l-4 10h-15zm25.728-37.834l-4.945 17.837h9.667l-4.72-17.838zM427.223 414.77v-53h24c2.598 0 5.324.49 7.524 1.564 2.197 1.074 4.084 2.473 5.658 4.195a19.637 19.637 0 0 1 3.71 5.92c.9 2.225 1.35 4.46 1.35 6.71 0 3.097-.676 5.982-2.024 8.654-1.348 2.674-3.223 4.86-5.62 6.56l12.403 19.396h-17l-10.018-16.176-4.982.176v16h-15zm15-29l8.73.085c.898 0 1.735-.5 2.51-1.5.774-1 1.162-2.398 1.162-4.196 0-1.85-.45-3.262-1.35-4.236-.898-.974-2.154-1.153-3.053-1.153h-8v11z"/><path fill="#0994D9" d="M116.518 457.627c0-3.704.654-7.35 1.967-10.94a29.713 29.713 0 0 1 5.77-9.66c2.535-2.848 5.61-5.156 9.23-6.923 3.618-1.765 7.736-2.65 12.352-2.65 5.413 0 10.143 1.212 14.19 3.634 4.044 2.422 7.036 5.628 8.974 9.615l-12.735 9.06c-.513-1.48-1.184-2.704-2.01-3.674-.825-.97-1.723-1.738-2.69-2.31a10.234 10.234 0 0 0-3.077-1.196c-1.084-.228-2.082-.342-2.992-.342-2.108 0-3.92.47-5.428 1.41a12.143 12.143 0 0 0-3.76 3.676c-.998 1.51-1.726 3.22-2.182 5.128a24.46 24.46 0 0 0-.683 5.685c0 2.11.27 4.133.812 6.07.54 1.938 1.34 3.647 2.395 5.128 1.053 1.482 2.335 2.664 3.846 3.547 1.51.885 3.232 1.325 5.172 1.325.967 0 1.965-.128 2.99-.385a9.985 9.985 0 0 0 2.95-1.282c.94-.6 1.794-1.367 2.563-2.308.77-.94 1.382-2.094 1.84-3.462l13.59 8.12c-.857 2.223-2.15 4.218-3.89 5.983a24.69 24.69 0 0 1-5.94 4.444 30.475 30.475 0 0 1-7.095 2.735c-2.508.627-4.957.94-7.35.94-4.22 0-8.094-.897-11.625-2.692-3.535-1.795-6.568-4.174-9.104-7.138-2.537-2.962-4.518-6.324-5.94-10.085-1.426-3.76-2.138-7.577-2.138-11.453zM201.908 488.996c-4.332 0-8.278-.883-11.838-2.65-3.563-1.766-6.61-4.088-9.146-6.966-2.536-2.877-4.502-6.168-5.898-9.873a32.22 32.22 0 0 1-2.094-11.454c0-3.987.726-7.834 2.18-11.54 1.453-3.702 3.49-6.965 6.11-9.785 2.622-2.82 5.714-5.07 9.274-6.753 3.562-1.68 7.48-2.52 11.754-2.52 4.33 0 8.276.884 11.838 2.648 3.56 1.767 6.61 4.104 9.146 7.01 2.534 2.906 4.488 6.212 5.854 9.915 1.368 3.705 2.053 7.493 2.053 11.368 0 3.988-.726 7.82-2.18 11.496-1.452 3.675-3.46 6.924-6.025 9.744-2.564 2.82-5.642 5.086-9.23 6.796-3.592 1.71-7.523 2.564-11.797 2.564zm-12.053-30.77c0 2.05.242 4.03.727 5.94.483 1.91 1.24 3.604 2.266 5.085a12.15 12.15 0 0 0 3.847 3.592c1.538.91 3.333 1.367 5.384 1.367 2.106 0 3.93-.47 5.47-1.41a11.602 11.602 0 0 0 3.762-3.677c.968-1.51 1.694-3.233 2.18-5.172.482-1.935.727-3.9.727-5.896 0-2.05-.26-4.03-.77-5.94-.515-1.908-1.27-3.59-2.267-5.043a11.52 11.52 0 0 0-3.803-3.503c-1.54-.884-3.335-1.325-5.386-1.325-2.108 0-3.92.457-5.427 1.367a11.712 11.712 0 0 0-3.762 3.633c-.998 1.51-1.74 3.22-2.223 5.128a23.722 23.722 0 0 0-.727 5.856zM253.223 458.77v30h-17v-61l9.79.026 48.21 60.974h-16.86l-24.14-30zM253.877 427.796h16.862l24.482 30.974v-31l17 .026v60.974h-10.03l-48.315-60.974zM361.21 473.783v14.986h-42.987v-61l43 .025v14.974h-26v8l22 .103v12.896h-22v10l25.986.013zM363.993 457.627c0-3.704.653-7.35 1.965-10.94a29.713 29.713 0 0 1 5.77-9.66c2.535-2.848 5.61-5.156 9.23-6.923 3.62-1.765 7.736-2.65 12.352-2.65 5.413 0 10.143 1.212 14.19 3.634 4.044 2.422 7.035 5.628 8.974 9.615l-12.736 9.06c-.514-1.48-1.184-2.704-2.01-3.674-.826-.97-1.723-1.738-2.69-2.31a10.23 10.23 0 0 0-3.078-1.196c-1.083-.228-2.08-.342-2.99-.342-2.11 0-3.92.47-5.43 1.41a12.157 12.157 0 0 0-3.76 3.676c-.997 1.51-1.725 3.22-2.18 5.128a24.406 24.406 0 0 0-.684 5.685c0 2.11.27 4.133.812 6.07.54 1.938 1.34 3.647 2.394 5.128 1.054 1.482 2.336 2.664 3.847 3.547 1.508.885 3.232 1.325 5.17 1.325.968 0 1.966-.128 2.992-.385a9.996 9.996 0 0 0 2.947-1.282c.94-.6 1.795-1.367 2.563-2.308.77-.94 1.382-2.094 1.84-3.462l13.59 8.12c-.855 2.223-2.15 4.218-3.89 5.983a24.652 24.652 0 0 1-5.94 4.444 30.484 30.484 0 0 1-7.094 2.735c-2.51.627-4.96.94-7.353.94-4.22 0-8.093-.897-11.624-2.692-3.535-1.795-6.57-4.174-9.103-7.138-2.537-2.962-4.518-6.324-5.94-10.085-1.427-3.76-2.137-7.577-2.137-11.453zM473.223 442.77h-17.075v46h-16.925v-46h-18v-14.974h52v14.974z"/></svg>