<svg width="1372" height="504" viewBox="0 0 1372 504" xmlns="http://www.w3.org/2000/svg"><title>Untitled 2</title><g fill="none" fill-rule="evenodd"><path d="M614 160s-50 11.122-50 24.678v149.804c0 2.433 17.606 4.518 17.606 4.518s17.605-2.085 17.605-4.518v-136.25c0-3.822 14.79-7.298 14.79-7.298s14.79 3.476 14.79 7.647v135.902c0 2.433 17.604 4.518 17.604 4.518S664 336.915 664 334.482V184.678C664 171.122 614 160 614 160M762.606 290.147v-19.294C781.62 267.345 795 258.223 795 247.35v-62.443c0-13.68-50-24.907-50-24.907s-50 11.226-50 24.907v62.442c0 10.874 13.38 19.995 32.394 23.503v19.294C708.38 293.655 695 302.777 695 313.3v62.442C695 389.774 745 401 745 401s50-11.226 50-25.258V313.3c0-10.524-13.38-19.645-32.394-23.153zM745 372s-15-3.636-15-8v-36.364c0-4 15-7.636 15-7.636s15 3.636 15 7.636v36.728c0 4-15 7.636-15 7.636zm0-128s-15-3.636-15-7.636v-36.728c0-4 15-7.636 15-7.636s15 3.636 15 8v36.364c0 4-15 7.636-15 7.636zM877.185 242H829.61c-1.218 0-3.61 14.832-3.61 14.832S828.392 272 829.61 272h47.575c1.22 0 3.815-14.832 3.815-14.832S878.405 242 877.185 242M994.394 279.302s-17.605 2.112-17.605 4.223v20.41c0 4.225-14.79 7.744-14.79 7.744s-14.79-3.52-14.79-7.39V198.71c0-3.87 14.79-7.39 14.79-7.39s14.79 3.52 14.79 7.744v20.41c0 2.112 17.604 4.224 17.604 4.224s17.606-2.112 17.606-4.223v-34.488c0-13.725-50-24.987-50-24.987s-50 11.262-50 24.987v133.026C912 331.738 962 343 962 343s50-11.262 50-24.987v-34.488c0-2.11-17.606-4.223-17.606-4.223M1092 160s-50 11.262-50 24.987v133.026c0 13.725 50 24.987 50 24.987s50-11.262 50-24.987V184.987c0-13.725-50-24.987-50-24.987zm0 150s-15-3.51-15-7.368V197.368c0-3.86 15-7.368 15-7.368s15 3.51 15 7.72V302.63c0 3.86-15 7.368-15 7.368zM1223 160s-50 11.122-50 24.678v149.804c0 2.433 17.606 4.518 17.606 4.518s17.605-2.085 17.605-4.518v-136.25c0-3.822 14.79-7.298 14.79-7.298s14.79 3.476 14.79 7.647v135.902c0 2.433 17.604 4.518 17.604 4.518s17.606-2.085 17.606-4.518V184.678c0-13.556-50-24.678-50-24.678M1367.798 163.95h-29.417v-21.385s6.655-7.713 14.71-7.713h14.708c2.1 0 4.202-15.426 4.202-15.426S1369.9 104 1367.798 104h-14.71c-27.314 0-49.726 24.892-49.726 24.892v35.06h-17.51c-2.1 0-3.852 15.425-3.852 15.425s1.75 15.777 3.852 15.777h17.51v141.288c0 2.455 17.51 4.558 17.51 4.558s17.51-2.103 17.51-4.558V195.154h29.416c2.1 0 4.202-15.426 4.202-15.426s-2.1-15.777-4.202-15.777" fill="#393A37"/><path d="M230.314 435.533L90.138 358.55l-26.1-216.667L0 97.043 36.23 397.43l194.084 106.11v-68.007" fill="#EBAF2A"/><path d="M247.314 503.078V435.07l139.322-76.52 26.112-216.78 64.04-44.84-36.243 300.5-193.23 105.648" fill="#129353"/><path d="M11.108 80.183l63.697 44.602L238.552 67l163.328 57.745 63.697-44.602L238.61 0 11.11 80.183" fill="#5373AB"/><path d="M369.387 348l-131 72-131-71-25-205 156-55 156 55-25 204" fill="#CA4038"/><path d="M170.31 346h-40.505l108.582-241.052L350.81 346h-37.543l-23.842-54.965h-97.34L170.31 346zm68.077-163.71L206.377 258h69.048l-37.038-75.71z" fill="#FFF"/></g></svg>