<svg xmlns="http://www.w3.org/2000/svg" viewBox="0 0 595.3 841.9"><path fill="#81B4C5" d="M82 617.9l147.1-116.4-13.2-111z"/><path fill="#6FA8BC" d="M82 617.9L69 421.4l146.9-30.9z"/><path fill="#8BC0D0" d="M132 222.7L69 421.4l146.9-30.9z"/><path fill="#81B4C5" d="M132 222.7l197.1 108.7-113.2 59.1z"/><path fill="#8BC0D0" d="M412.2 437.8l-183.1 63.7-13.2-111z"/><path fill="#6EA7B8" d="M412.2 437.8l-83.1-106.4-113.2 59.1z"/><path fill="#81B4C5" d="M412.2 437.8l-83.1-106.4 197-60.9z"/><path fill="#8BC0D0" d="M412.2 437.8l97 33.6 16.9-200.9z"/><path fill="#82B4C4" d="M486.1 550.6l-73.9-112.8-183.1 63.7 257 49.1"/><path fill="#82B4C4" d="M486.1 550.6l-73.9-112.8 97 33.6-23.1 79.2"/><path fill="#6EA7B8" d="M412.2 437.8l97 33.6-23.1 79.2"/></svg>