<svg xmlns="http://www.w3.org/2000/svg" viewBox="0 0 595.3 841.9"><path fill="#4E8797" d="M365.2 520.2L232.3 418l-51.1 129.4z"/><path fill="#5899AD" d="M365.2 520.2L232.3 418l109-10.6z"/><path fill="#6EA7B8" d="M65 510.2L232.3 418l-51.1 129.4z"/><path fill="#81B4C5" d="M65 510.2L232.3 418l-111.1-60.7z"/><path fill="#4F889A" d="M365.2 520.2l143.1-23.6-56.9 110.9z"/><path fill="#6FA8BC" d="M585.4 660.3l-77.1-163.7-56.9 110.9z"/><path fill="#8BC0D0" d="M585.4 660.3l-77.1-163.7 103.2.8z"/><path fill="#5899AD" d="M505.3 380.1l3 116.5 103.2.8z"/><path fill="#82B4C4" d="M505.3 380.1l123.1 16.4-16.9 100.9z"/><path fill="#8BC0D0" d="M505.3 380.1l123.1 16.4-86.9-99.2z"/><path fill="#81B4C5" d="M505.3 380.1l-117-63.6 153.2-19.2z"/><path fill="#8BC0D0" d="M330.3 180l58 136.5 153.2-19.2z"/><path fill="#457F92" d="M365.2 520.2l143.1-23.6-167-89.2z"/><path fill="#4E8797" d="M505.3 380.1l3 116.5-167-89.2z"/><path fill="#5899AD" d="M505.3 380.1l-117-63.6-47 90.9z"/><path fill="#81B4C5" d="M275.2 300.1L232.3 418l109-10.6z"/><path fill="#6EA7B8" d="M275.2 300.1l113.1 16.4-47 90.9z"/><path fill="#6EA7B8" d="M275.2 300.1l113.1 16.4-58-136.5z"/><path fill="#84BBCD" d="M275.2 300.1L232.3 418l-111.1-60.7z"/><path fill="#79A9B8" d="M121.2 357.3L-32 466.5l97 43.7z"/><path fill="#84BBCD" d="M121.2 357.3L-32 466.5l27-126.4z"/></svg>