<svg xmlns="http://www.w3.org/2000/svg" viewBox="0 0 595.3 841.9"><path fill="#81B4C5" d="M505.4 607.9L358.3 491.4l13.1-110.9z"/><path fill="#6FA8BC" d="M505.4 607.9l13-196.5-147-30.9z"/><path fill="#8BC0D0" d="M464.3 232.7l54.1 178.7-147-30.9z"/><path fill="#81B4C5" d="M464.3 232.7l-196.1 68.6 103.2 79.2z"/><path fill="#8BC0D0" d="M175.2 427.8l183.1 63.6 13.1-110.9z"/><path fill="#6EA7B8" d="M175.2 427.8l93-126.5 103.2 79.2z"/><path fill="#81B4C5" d="M175.2 427.8l93-126.5-167-30.9z"/><path fill="#8BC0D0" d="M175.2 427.8l-97.1 33.6 23.1-191z"/><path fill="#82B4C4" d="M101.2 540.6l74-112.8 183.1 63.6-257.1 49.2"/><path fill="#6EA7B8" d="M175.2 427.8l-97.1 33.6 23.1 79.2"/></svg>